<svg xmlns="http://www.w3.org/2000/svg" width="148" height="148" viewBox="0 0 148 148" version="1.1"><path d="M 67.510 34.115 C 50.616 37.541, 34.972 53.416, 41.780 60.225 C 44.699 63.144, 48.419 61.900, 51.778 56.882 C 60.093 44.462, 65.177 41.538, 77.391 42.155 C 84.060 42.491, 85.245 42.861, 87.940 45.442 C 93.561 50.828, 92.893 58.792, 86.198 66.203 C 82.034 70.812, 76.290 74, 72.150 74 L 69.220 74 72.678 66.002 C 76.354 57.500, 76.399 54, 72.834 54 C 68.782 54, 64.537 60.153, 49.581 87.712 C 40.906 103.696, 40.121 107.633, 45.252 109.426 C 50.542 111.275, 55.988 104.380, 60.574 90.026 C 61.633 86.712, 62.801 84, 63.169 84 C 63.538 84, 64.581 86.234, 65.488 88.965 C 67.487 94.983, 73.166 103.768, 76.823 106.500 C 83.253 111.303, 96.150 107.900, 104.067 99.312 C 108.284 94.737, 108.831 92.934, 106.572 91.060 C 105.425 90.108, 104.392 90.549, 101.322 93.301 C 96.070 98.009, 91.829 100, 87.050 100 C 82.156 100, 79.812 97.941, 76.424 90.664 C 73.556 84.504, 73.361 82.004, 75.750 81.990 C 78.266 81.976, 87.390 77.562, 92.524 73.875 C 107.522 63.105, 107.131 44.077, 91.758 36.596 C 85.634 33.616, 75.223 32.551, 67.510 34.115" stroke="none" fill="#faf7fb" fill-rule="evenodd"/><path d="M 56.500 11.872 C 35.014 18.067, 17.088 36.336, 11.586 57.644 C 9.056 67.444, 9.453 83.164, 12.471 92.719 C 20.783 119.032, 43.375 136.496, 70.764 137.782 C 94.550 138.898, 115.872 127.847, 128.222 108 C 135.088 96.966, 137.946 86.989, 137.961 74 C 137.994 44.963, 119.117 19.898, 91.205 11.916 C 82.435 9.408, 65.123 9.386, 56.500 11.872 M 67.510 34.115 C 50.616 37.541, 34.972 53.416, 41.780 60.225 C 44.699 63.144, 48.419 61.900, 51.778 56.882 C 60.093 44.462, 65.177 41.538, 77.391 42.155 C 84.060 42.491, 85.245 42.861, 87.940 45.442 C 93.561 50.828, 92.893 58.792, 86.198 66.203 C 82.034 70.812, 76.290 74, 72.150 74 L 69.220 74 72.678 66.002 C 76.354 57.500, 76.399 54, 72.834 54 C 68.782 54, 64.537 60.153, 49.581 87.712 C 40.906 103.696, 40.121 107.633, 45.252 109.426 C 50.542 111.275, 55.988 104.380, 60.574 90.026 C 61.633 86.712, 62.801 84, 63.169 84 C 63.538 84, 64.581 86.234, 65.488 88.965 C 67.487 94.983, 73.166 103.768, 76.823 106.500 C 83.253 111.303, 96.150 107.900, 104.067 99.312 C 108.284 94.737, 108.831 92.934, 106.572 91.060 C 105.425 90.108, 104.392 90.549, 101.322 93.301 C 96.070 98.009, 91.829 100, 87.050 100 C 82.156 100, 79.812 97.941, 76.424 90.664 C 73.556 84.504, 73.361 82.004, 75.750 81.990 C 78.266 81.976, 87.390 77.562, 92.524 73.875 C 107.522 63.105, 107.131 44.077, 91.758 36.596 C 85.634 33.616, 75.223 32.551, 67.510 34.115" stroke="none" fill="#ad14db" fill-rule="evenodd"/></svg>